<?xml version="1.0" ?><!DOCTYPE svg  PUBLIC '-//W3C//DTD SVG 1.1//EN'  'http://www.w3.org/Graphics/SVG/1.1/DTD/svg11.dtd'><svg enable-background="new 0 0 91 91" height="91px" id="Layer_1" version="1.1" viewBox="0 0 91 91" width="91px" xml:space="preserve" xmlns="http://www.w3.org/2000/svg" xmlns:xlink="http://www.w3.org/1999/xlink"><g><path fill="#404040" d="M44.384,90.277c0.381,0.215,0.805,0.322,1.229,0.322c0.412,0,0.824-0.102,1.197-0.305   c1.516-0.822,37.172-20.404,42.191-44.293c2.279-10.852-0.373-21.956-7.279-30.465C73.784,5.758,60.96,0.373,45.612,0.373   c-14.639,0-29.424,6.967-37.666,17.748C1.526,26.518-0.438,36.208,2.249,46.1C8.226,69.773,42.909,89.451,44.384,90.277z    M11.938,21.172C19.265,11.59,32.481,5.398,45.612,5.398c13.805,0,25.242,4.725,32.207,13.306   c5.949,7.329,8.23,16.901,6.264,26.265c-4.055,19.298-32.215,36.598-38.451,40.217C39.497,81.513,11.979,64.107,7.11,44.826   C4.237,34.254,8.151,26.128,11.938,21.172z"/><path fill="#404040" d="M22.985,58.715c1.445,0.472,2.959,0.711,4.504,0.711c6.85,0,12.969-4.651,14.387-8.996   c1.762-5.411-3.529-11.827-12.045-14.607c-2.488-0.813-5.072-1.242-7.471-1.242c-5.596,0-9.658,2.218-10.871,5.935   C9.634,46.219,14.876,56.068,22.985,58.715z M16.267,42.072c0.482-1.476,2.93-2.467,6.094-2.467c1.875,0,3.92,0.344,5.912,0.994   c5.959,1.946,9.576,5.973,8.826,8.272c-0.717,2.201-4.918,5.529-9.609,5.529c-1.014,0-2.004-0.155-2.945-0.463   C18.763,52.051,15.403,44.729,16.267,42.072z"/><path fill="#404040" d="M63.323,59.426c1.543,0,3.059-0.239,4.504-0.711c8.113-2.648,13.352-12.5,11.492-18.2   c-1.211-3.716-5.273-5.934-10.869-5.934c-2.398,0-4.982,0.429-7.473,1.242c-8.518,2.781-13.807,9.198-12.043,14.609   C50.353,54.775,56.472,59.426,63.323,59.426z M62.536,40.6c1.994-0.65,4.039-0.994,5.914-0.994c3.162,0,5.611,0.991,6.092,2.467   c0.867,2.656-2.49,9.978-8.273,11.865c-0.941,0.308-1.932,0.463-2.945,0.463c-4.693,0-8.893-3.328-9.611-5.528   C52.962,46.572,56.577,42.546,62.536,40.6z"/><path fill="#404040" d="M46.06,71.715c1.613,0,2.924-1.313,2.924-2.926c0-1.609-1.311-2.92-2.924-2.92s-2.928,1.311-2.928,2.92   C43.132,70.402,44.446,71.715,46.06,71.715z"/></g></svg>