<?xml version="1.0" ?><svg viewBox="0 0 60 60" xmlns="http://www.w3.org/2000/svg"><title/><g data-name="Layer 1" id="Layer_1"><path fill="#404040" d="M33,47H32a1,1,0,0,0,0,2h1a1,1,0,0,0,0-2Z"/><path fill="#404040" d="M59.59961,46.2002c-4.03076-3.024-9.85034-3.18976-15.595-3.19928L44,43h-.38184l-2.72363-5.44727a1.00073,1.00073,0,0,0-.52344-.48145c-5.248-2.09961-21.49414-2.09961-26.74219,0A1.00046,1.00046,0,0,0,13,38c0,3.28223-1.50879,5-3,5H1a.99947.99947,0,0,0-.96191,1.27441L2,51.13965V55a1.00066,1.00066,0,0,0,.80371.98047l5,1A1.02905,1.02905,0,0,0,8,57a1.00013,1.00013,0,0,0,1-1,3.48854,3.48854,0,0,1,2.53528-3.205A4.93728,4.93728,0,0,0,11,55a5,5,0,0,0,10,0,4.93728,4.93728,0,0,0-.53528-2.205A3.48854,3.48854,0,0,1,23,56a.99942.99942,0,0,0,1,1H42a.99942.99942,0,0,0,1-1,3.48854,3.48854,0,0,1,2.53528-3.205A4.93728,4.93728,0,0,0,45,55a4.99868,4.99868,0,0,0,9.90112.97748c3.304-.15668,4.02466-1.23785,4.093-3.55756L59.707,51.707A.99928.99928,0,0,0,60,51V47A.99948.99948,0,0,0,59.59961,46.2002ZM41.382,43H29V37.53662c4.18774.10132,8.1311.52216,10.28223,1.26318Zm-22.8468,0-2.9624-4.44348A51.24644,51.24644,0,0,1,27,37.5144V43ZM14.637,40.75818,16.13159,43H13.60425A6.85425,6.85425,0,0,0,14.637,40.75818ZM19,55a3,3,0,1,1-3-3A3.00328,3.00328,0,0,1,19,55Zm-3-5c-3.75488,0-8.07812,1.28516-8.87207,4.80566L4,54.18066V51a1.00084,1.00084,0,0,0-.03809-.27441L3.469,49H5a1,1,0,0,0,0-2H2.89746l-.57129-2H27V55H24.91113C24.23535,51.332,19.82227,50,16,50Zm25.08887,5H29V45H42.44031a10.48922,10.48922,0,0,1,1.55737,6.31763A5.25506,5.25506,0,0,0,41.08887,55ZM50,58a3,3,0,1,1,3-3A3.00328,3.00328,0,0,1,50,58Zm7.293-6.707A.99928.99928,0,0,0,57,52c0,1.5733-.00513,1.92871-2.10327,1.98883A5.00858,5.00858,0,0,0,50,50a15.01044,15.01044,0,0,0-4.01416.52942,11.83305,11.83305,0,0,0-1.251-5.52594c4.55823.02246,9.08472.22546,12.394,1.99652H57a1,1,0,0,0,0,2h1v1.58594Z"/></g></svg>