<?xml version="1.0" ?><!DOCTYPE svg  PUBLIC '-//W3C//DTD SVG 1.1//EN'  'http://www.w3.org/Graphics/SVG/1.1/DTD/svg11.dtd'><svg enable-background="new 0 0 91 91" height="91px" id="Layer_1" version="1.1" viewBox="0 0 91 91" width="91px" xml:space="preserve" xmlns="http://www.w3.org/2000/svg" xmlns:xlink="http://www.w3.org/1999/xlink"><g><path fill="#404040" d="M58.592,19.771c-9.185,0-16.38,5.318-16.38,12.106c0,6.791,7.195,12.111,16.38,12.111c9.183,0,16.376-5.32,16.376-12.111   C74.968,25.089,67.774,19.771,58.592,19.771z M58.592,38.963c-6.155,0-11.354-3.245-11.354-7.085c0-3.838,5.199-7.081,11.354-7.081   c6.153,0,11.351,3.243,11.351,7.081C69.942,35.718,64.745,38.963,58.592,38.963z"/><path fill="#404040" d="M45.75,0.455c-24.83,0-45.03,20.201-45.03,45.03c0,10.438,3.578,20.049,9.56,27.693c0.044,0.066,0.079,0.137,0.13,0.199   c0.037,0.047,0.084,0.08,0.124,0.123C18.79,83.859,31.504,90.518,45.75,90.518c6.919,0,13.476-1.572,19.339-4.372   c0.075-0.033,0.15-0.063,0.223-0.104c9.271-4.49,16.775-12.069,21.178-21.391c0.086-0.149,0.159-0.306,0.213-0.47   c2.613-5.699,4.082-12.027,4.082-18.697C90.784,20.655,70.581,0.455,45.75,0.455z M85.759,45.484   c0,5.699-1.207,11.119-3.363,16.029c-8.35,3.811-21.873,2.305-33.863,0.957c-4.939-0.555-9.605-1.08-13.551-1.179   c-12.961-0.338-19.172,3.986-22.252,6.746c-2.182-3.184-3.914-6.696-5.107-10.448c7.904-4.709,30.501-6.479,40.038-3.81   c0.069,0.019,0.138,0.022,0.206,0.036c3.016,1.017,6.105,1.672,9.299,1.672c0.232,0,0.467-0.003,0.701-0.01   c8.869-0.271,15.981-4.404,21.696-7.727c2.384-1.386,4.507-2.613,6.173-3.197C85.741,44.865,85.759,45.173,85.759,45.484z    M5.745,45.484c0-0.483,0.02-0.963,0.036-1.443c0.052-0.021,0.105-0.032,0.157-0.057c0.051-0.025,5.207-2.479,13.516-1.756   c4.917,0.428,9.81,2.738,14.93,5.358c-9.903,0.119-21.339,1.755-27.996,4.994C5.974,50.276,5.745,47.907,5.745,45.484z    M77.038,43.408c-5.226,3.036-11.729,6.815-19.324,7.047c-6.418,0.189-12.671-3.027-19.282-6.438   c-5.94-3.065-12.081-6.233-18.542-6.795c-6.123-0.533-10.799,0.426-13.518,1.256c0.587-3.31,1.582-6.479,2.932-9.457   c0.846,0.07,1.672,0.112,2.474,0.112c7.858,0,13.721-3.21,19.885-6.586c7.269-3.981,14.771-8.076,27.089-7.998   c9.605,0.079,19.055,7.414,19.146,7.487c0.139,0.108,0.283,0.2,0.434,0.275c3.559,4.987,6.01,10.814,6.971,17.128   C82.813,40.051,80.109,41.622,77.038,43.408z M45.75,5.48c6.835,0,13.274,1.726,18.909,4.761c-1.895-0.429-3.865-0.699-5.867-0.715   c-13.605-0.128-22.075,4.525-29.543,8.615c-5.729,3.137-10.77,5.896-17.284,5.961C19.067,12.921,31.552,5.48,45.75,5.48z    M32.803,83.33c5.761-3.215,15.815-4.189,25.405,0.166c-3.924,1.289-8.109,1.996-12.458,1.996   C41.22,85.492,36.866,84.724,32.803,83.33z M64.19,80.971c-13.217-7.939-29.219-6.447-36.82,0.03   c-4.379-2.275-8.287-5.333-11.535-8.993c2.553-2.346,7.548-5.981,19.02-5.692c3.727,0.094,8.288,0.606,13.117,1.149   c10.354,1.164,21.795,2.438,30.891,0.449C75.14,73.391,70.093,77.891,64.19,80.971z"/></g></svg>