<?xml version="1.0" ?><!DOCTYPE svg  PUBLIC '-//W3C//DTD SVG 1.1//EN'  'http://www.w3.org/Graphics/SVG/1.1/DTD/svg11.dtd'><svg enable-background="new 0 0 800 800" height="800px" id="GUIDE" version="1.1" viewBox="0 0 800 800" width="800px" xml:space="preserve" xmlns="http://www.w3.org/2000/svg" xmlns:cc="http://creativecommons.org/ns#" xmlns:dc="http://purl.org/dc/elements/1.1/" xmlns:inkscape="http://www.inkscape.org/namespaces/inkscape" xmlns:rdf="http://www.w3.org/1999/02/22-rdf-syntax-ns#" xmlns:sodipodi="http://sodipodi.sourceforge.net/DTD/sodipodi-0.dtd" xmlns:svg="http://www.w3.org/2000/svg" xmlns:xlink="http://www.w3.org/1999/xlink"><g><path d="M759.108,268.768C710.712,220.371,654.2,182.89,591.146,157.365   C530.289,132.73,465.979,120.238,400,120.237c-65.976,0-130.285,12.491-191.142,37.127   c-63.06,25.526-119.572,63.008-167.967,111.403c-16.569,16.569-16.569,43.528,0,60.097c8.026,8.026,18.698,12.446,30.049,12.446   s22.023-4.42,30.048-12.446c79.73-79.726,185.92-123.635,299.012-123.635c113.093,0,219.283,43.908,299.011,123.637   c8.027,8.026,18.698,12.446,30.049,12.446h0.002c11.352,0,22.021-4.421,30.049-12.446   C775.677,312.297,775.677,285.337,759.108,268.768z M737.896,307.653c-2.358,2.358-5.497,3.659-8.836,3.659h-0.002   c-3.336,0.001-6.474-1.3-8.834-3.659C634.83,222.259,521.104,175.229,400,175.229c-121.104,0-234.829,47.028-320.225,132.423   c-2.359,2.358-5.497,3.658-8.834,3.658c-3.338,0-6.476-1.3-8.836-3.659c-4.872-4.872-4.872-12.799,0-17.671   c45.537-45.536,98.699-80.799,158.01-104.809C277.379,161.99,337.901,150.236,400,150.236   c62.103,0.001,122.626,11.755,179.889,34.936c59.31,24.008,112.471,59.271,158.008,104.808   C742.767,294.854,742.767,302.781,737.896,307.653z" fill="#404040"/><path d="M658.117,369.76c-34.786-34.786-75.398-61.724-120.709-80.065c-43.743-17.707-89.975-26.686-137.407-26.686   c-47.433,0-93.664,8.979-137.407,26.686c-45.312,18.342-85.924,45.279-120.71,80.065c-8.027,8.026-12.447,18.698-12.447,30.05   s4.421,22.023,12.447,30.05c8.027,8.024,18.699,12.444,30.049,12.444c11.352,0,22.023-4.42,30.049-12.444   c52.803-52.805,123.127-81.886,198.018-81.886c74.891,0,145.216,29.081,198.019,81.884c8.025,8.026,18.698,12.448,30.052,12.448   c11.352,0,22.022-4.42,30.049-12.446c8.026-8.025,12.447-18.698,12.447-30.05C670.564,388.458,666.144,377.786,658.117,369.76z    M636.903,408.646c-2.36,2.36-5.498,3.659-8.835,3.659c-3.339,0-6.476-1.299-8.836-3.659   c-58.472-58.472-136.33-90.673-219.233-90.673c-82.904,0-160.762,32.201-219.23,90.673c-2.359,2.358-5.498,3.657-8.836,3.657   s-6.476-1.299-8.836-3.66c-2.36-2.358-3.66-5.495-3.66-8.834c0-3.338,1.3-6.477,3.66-8.836   c63.174-63.174,147.309-97.965,236.904-97.965s173.729,34.791,236.903,97.965c2.359,2.359,3.659,5.498,3.659,8.836   C640.563,403.148,639.265,406.284,636.903,408.646z" fill="#404040"/><path d="M557.124,470.753c-41.915-41.914-97.716-64.998-157.124-64.998c-59.407,0-115.209,23.084-157.124,64.998   c-8.026,8.027-12.446,18.698-12.445,30.051c0,11.351,4.42,22.021,12.445,30.045c8.026,8.029,18.698,12.449,30.05,12.449   c11.352,0,22.023-4.422,30.048-12.447c25.863-25.86,60.322-40.104,97.026-40.104c36.705,0,71.164,14.244,97.025,40.104   c8.023,8.027,18.695,12.449,30.05,12.449c11.353,0,22.023-4.422,30.049-12.447c8.026-8.024,12.447-18.696,12.447-30.049   C569.571,489.451,565.15,478.78,557.124,470.753z M535.91,509.638c-2.359,2.359-5.497,3.66-8.835,3.66s-6.476-1.299-8.835-3.662   c-31.53-31.526-73.522-48.891-118.24-48.891s-86.709,17.363-118.241,48.893c-2.359,2.361-5.496,3.66-8.833,3.66   s-6.476-1.299-8.837-3.662c-2.359-2.358-3.658-5.496-3.658-8.834c-0.001-3.338,1.299-6.476,3.658-8.836   c36.249-36.248,84.517-56.211,135.911-56.211c51.394,0,99.662,19.963,135.911,56.211c2.359,2.36,3.66,5.498,3.66,8.836   S538.271,507.276,535.91,509.638z" fill="#404040"/><path d="M436.69,591.188c-9.802-9.802-22.831-15.197-36.69-15.197c-13.859,0-26.89,5.396-36.69,15.197   c-9.8,9.801-15.197,22.832-15.196,36.69c0,13.859,5.396,26.889,15.198,36.688c9.798,9.799,22.827,15.196,36.688,15.196   c0.002,0,0.002,0,0.004,0c13.855,0,26.887-5.396,36.688-15.196C456.921,644.337,456.921,611.419,436.69,591.188z M415.479,643.354   c-4.136,4.135-9.631,6.409-15.476,6.409h-0.002c-5.848,0-11.344-2.276-15.477-6.409c-8.534-8.533-8.534-22.418-0.001-30.953   c4.134-4.134,9.63-6.41,15.477-6.41c5.847,0,11.344,2.276,15.477,6.41C424.011,620.935,424.011,634.819,415.479,643.354z" fill="#404040"/></g></svg>