<?xml version="1.0" ?><!DOCTYPE svg  PUBLIC '-//W3C//DTD SVG 1.1//EN'  'http://www.w3.org/Graphics/SVG/1.1/DTD/svg11.dtd'><svg height="512px" style="enable-background:new 0 0 512 512;" version="1.1" viewBox="0 0 512 512" width="512px" xml:space="preserve" xmlns="http://www.w3.org/2000/svg" xmlns:xlink="http://www.w3.org/1999/xlink"><g id="books__x2C__reading__x2C__study_x2C___christmas__x2C_"><g><g><path d="M426.829,500.725c-0.008,0-0.014,0-0.02,0H112.375c-17.205,0-31.203-13.997-31.203-31.201     c0-16.553,14.289-30.537,31.203-30.537H426.81c1.625,0,3.124,0.876,3.922,2.293c0.797,1.416,0.769,3.152-0.075,4.542     c-10.723,17.666-10.854,32.765-0.402,47.484c0.671,0.785,1.075,1.805,1.075,2.919     C431.329,498.71,429.314,500.725,426.829,500.725z M112.375,447.986c-12.035,0-22.203,9.862-22.203,21.537     c0,12.242,9.96,22.201,22.203,22.201h306.39c-7.045-13.67-6.883-28.326,0.486-43.738H112.375z" style="fill:#221F20;"/></g><g><path d="M376.073,474.023H136.408c-2.485,0-4.5-2.015-4.5-4.5s2.015-4.5,4.5-4.5h239.666     c2.485,0,4.5,2.015,4.5,4.5S378.559,474.023,376.073,474.023z" style="fill:#221F20;"/></g><g><g><path d="M85.672,474.023c-0.008,0-0.016,0-0.024,0c-2.485-0.014-4.489-2.038-4.476-4.523l2-378.524      c0.343-21.283,8.787-41.182,23.777-56.079c15.035-14.94,34.98-23.169,56.162-23.169h250.347c9.677,0,17.852,7.864,17.852,17.173      v415.253c0,2.485-2.015,4.5-4.5,4.5s-4.5-2.015-4.5-4.5V28.901c0-4.354-4.137-8.173-8.852-8.173H163.111      c-38.491,0-70.314,31.556-70.939,70.344l-2,378.475C90.159,472.024,88.146,474.023,85.672,474.023z" style="fill:#221F20;"/></g><g><path d="M141.077,447.986c-2.485,0-4.5-2.015-4.5-4.5V23.565c0-2.485,2.015-4.5,4.5-4.5      s4.5,2.015,4.5,4.5v419.921C145.577,445.972,143.563,447.986,141.077,447.986z" style="fill:#221F20;"/></g><g><path d="M380.074,326.481H197.827c-2.485,0-4.5-2.015-4.5-4.5s2.015-4.5,4.5-4.5h182.247      c2.485,0,4.5,2.015,4.5,4.5S382.56,326.481,380.074,326.481z" style="fill:#221F20;"/></g><g><path d="M380.074,377.885H197.827c-2.485,0-4.5-2.015-4.5-4.5s2.015-4.5,4.5-4.5h182.247      c2.485,0,4.5,2.015,4.5,4.5S382.56,377.885,380.074,377.885z" style="fill:#221F20;"/></g><g><path d="M251.899,231.678c-0.942,0-1.884-0.295-2.679-0.884c-1.57-1.164-2.21-3.208-1.583-5.06      l12.961-38.257l-32.732-24.085c-1.577-1.16-2.222-3.206-1.598-5.061c0.617-1.833,2.335-3.063,4.264-3.063      c0.023,0,0.046,0,0.07,0l40.054,0.616l12.339-38.876c0.59-1.857,2.308-3.125,4.257-3.139c1.97,0.01,3.686,1.229,4.302,3.077      l12.975,38.938l40.104-0.616c1.951-0.036,3.709,1.208,4.334,3.063s-0.021,3.901-1.598,5.061l-32.772,24.115l12.354,38.29      c0.597,1.849-0.061,3.872-1.629,5.017c-1.569,1.146-3.696,1.154-5.275,0.022l-32.762-23.487l-32.763,23.487      C253.737,231.397,252.818,231.678,251.899,231.678z M287.284,197.311c0.919,0,1.838,0.281,2.622,0.843l24.286,17.411      l-9.157-28.379c-0.595-1.843,0.056-3.859,1.615-5.006l24.049-17.696l-29.328,0.451c-1.959,0.055-3.718-1.214-4.339-3.077      l-9.644-28.942l-9.167,28.88c-0.601,1.894-2.358,3.202-4.358,3.138l-29.329-0.451l24.049,17.696      c1.579,1.162,2.224,3.212,1.595,5.068l-9.526,28.119l24.01-17.212C285.446,197.591,286.365,197.311,287.284,197.311z" style="fill:#221F20;"/></g><g><path d="M315.319,148.903c-1.089,0-2.18-0.392-3.044-1.187c-1.83-1.682-1.95-4.528-0.269-6.358      l45.4-49.402c1.684-1.83,4.529-1.95,6.358-0.269c1.83,1.682,1.95,4.528,0.269,6.358l-45.4,49.402      C317.746,148.413,316.534,148.903,315.319,148.903z" style="fill:#221F20;"/></g><g><path d="M262.587,147.571c-1.491,0-2.951-0.741-3.808-2.096L222.06,87.4      c-1.328-2.101-0.702-4.88,1.399-6.208c2.101-1.327,4.88-0.702,6.208,1.399l36.719,58.075c1.328,2.101,0.702,4.88-1.398,6.208      C264.241,147.346,263.409,147.571,262.587,147.571z" style="fill:#221F20;"/></g><g><path d="M180.461,216.339c-1.976,0-3.788-1.311-4.336-3.308c-0.659-2.396,0.75-4.873,3.146-5.532      l60.753-16.699c2.4-0.662,4.873,0.75,5.532,3.146c0.659,2.396-0.75,4.873-3.146,5.532l-60.753,16.699      C181.257,216.287,180.855,216.339,180.461,216.339z" style="fill:#221F20;"/></g><g><path d="M290.614,297.111c-2.383,0-4.372-1.871-4.49-4.277l-3.334-67.435      c-0.123-2.482,1.79-4.594,4.271-4.717c2.48-0.108,4.595,1.79,4.717,4.272l3.334,67.434c0.123,2.482-1.79,4.595-4.271,4.717      C290.765,297.109,290.689,297.111,290.614,297.111z" style="fill:#221F20;"/></g><g><path d="M404.78,210.979c-0.339,0-0.683-0.039-1.027-0.119l-71.425-16.674      c-2.42-0.565-3.924-2.985-3.358-5.405c0.564-2.42,2.982-3.921,5.405-3.359l71.425,16.674c2.42,0.565,3.924,2.985,3.358,5.405      C408.674,209.578,406.824,210.979,404.78,210.979z" style="fill:#221F20;"/></g><g><path d="M289.284,100.167c-7.377,0-13.849-6.778-13.849-14.505c0-7.124,6.73-13.86,13.849-13.86      c7.733,0,14.517,6.477,14.517,13.86C303.801,93.525,297.153,100.167,289.284,100.167z M289.284,80.803      c-2.175,0-4.849,2.68-4.849,4.86c0,2.913,2.711,5.505,4.849,5.505c2.836,0,5.517-2.675,5.517-5.505      C294.801,83.521,292.203,80.803,289.284,80.803z" style="fill:#221F20;"/></g><g><path d="M377.407,164.934c-7.767,0-13.85-6.088-13.85-13.86c0-7.263,6.213-13.171,13.85-13.171      c7.146,0,13.182,6.032,13.182,13.171C390.589,158.717,384.676,164.934,377.407,164.934z M377.407,146.903      c-2.674,0-4.85,1.871-4.85,4.171c0,2.861,1.994,4.86,4.85,4.86c2.306,0,4.182-2.18,4.182-4.86      C381.589,148.891,379.596,146.903,377.407,146.903z" style="fill:#221F20;"/></g><g><path d="M193.147,160.242c-7.63,0-13.837-6.507-13.837-14.505c0-7.76,6.078-13.838,13.837-13.838      c8.004,0,14.517,6.208,14.517,13.838C207.664,153.6,201.016,160.242,193.147,160.242z M193.147,140.899      c-2.848,0-4.837,1.989-4.837,4.838c0,3.036,2.17,5.505,4.837,5.505c2.835,0,5.517-2.675,5.517-5.505      C198.664,143.069,196.189,140.899,193.147,140.899z" style="fill:#221F20;"/></g><g><path d="M227.864,279.748c-7.868,0-14.516-6.643-14.516-14.506c0-7.644,6.512-13.861,14.516-13.861      c7.507,0,13.85,6.348,13.85,13.861C241.714,272.97,235.242,279.748,227.864,279.748z M227.864,260.381      c-3.042,0-5.516,2.181-5.516,4.861c0,2.83,2.681,5.506,5.516,5.506c2.138,0,4.85-2.593,4.85-5.506      C232.714,262.46,230.154,260.381,227.864,260.381z" style="fill:#221F20;"/></g><g><path d="M342.689,279.748c-7.76,0-13.838-6.078-13.838-13.838c0-7.773,6.078-13.862,13.838-13.862      c8.004,0,14.516,6.219,14.516,13.862C357.205,273.54,350.693,279.748,342.689,279.748z M342.689,261.048      c-2.849,0-4.838,1.999-4.838,4.862c0,2.849,1.989,4.838,4.838,4.838c3.041,0,5.516-2.17,5.516-4.838      C348.205,263.229,345.73,261.048,342.689,261.048z" style="fill:#221F20;"/></g></g></g></g><g id="Layer_1"/></svg>