<?xml version="1.0" ?><!DOCTYPE svg  PUBLIC '-//W3C//DTD SVG 1.1//EN'  'http://www.w3.org/Graphics/SVG/1.1/DTD/svg11.dtd'><svg enable-background="new 0 0 800 800" height="800px" id="GUIDE" version="1.1" viewBox="0 0 800 800" width="800px" xml:space="preserve" xmlns="http://www.w3.org/2000/svg" xmlns:cc="http://creativecommons.org/ns#" xmlns:dc="http://purl.org/dc/elements/1.1/" xmlns:inkscape="http://www.inkscape.org/namespaces/inkscape" xmlns:rdf="http://www.w3.org/1999/02/22-rdf-syntax-ns#" xmlns:sodipodi="http://sodipodi.sourceforge.net/DTD/sodipodi-0.dtd" xmlns:svg="http://www.w3.org/2000/svg" xmlns:xlink="http://www.w3.org/1999/xlink"><path d="M756.572,28.427H43.428c-8.284,0-15,6.716-15,15v590.446c0,3.836,1.47,7.525,4.105,10.312l116.146,122.7  c2.832,2.993,6.771,4.688,10.893,4.688h597.001c8.284,0,15-6.716,15-15V43.427C771.572,35.143,764.856,28.427,756.572,28.427z   M144.499,58.427h511v275.072h-511V58.427L144.499,58.427z M535.499,741.573h-271V565.499h271V741.573z M741.572,741.573H565.499  V550.499c0-8.284-6.716-15-15-15h-301c-8.284,0-15,6.716-15,15v191.074h-68.472l-107.6-113.674V58.427h56.071v290.072  c0,8.284,6.716,15,15,15h541c8.284,0,15-6.716,15-15V58.427h56.073L741.572,741.573L741.572,741.573z" fill="#08213D"/><path d="M355.295,583.703h-57.592c-8.284,0-15,6.716-15,15V710.48c0,8.283,6.716,15,15,15h57.592  c8.284,0,15-6.717,15-15V598.703C370.295,590.419,363.579,583.703,355.295,583.703z M340.295,695.48h-27.592v-81.777h27.592V695.48z  " fill="#08213D"/></svg>