<?xml version="1.0" ?><!DOCTYPE svg  PUBLIC '-//W3C//DTD SVG 1.1//EN'  'http://www.w3.org/Graphics/SVG/1.1/DTD/svg11.dtd'><svg enable-background="new 0 0 800 800" height="800px" id="GUIDE" version="1.1" viewBox="0 0 800 800" width="800px" xml:space="preserve" xmlns="http://www.w3.org/2000/svg" xmlns:cc="http://creativecommons.org/ns#" xmlns:dc="http://purl.org/dc/elements/1.1/" xmlns:inkscape="http://www.inkscape.org/namespaces/inkscape" xmlns:rdf="http://www.w3.org/1999/02/22-rdf-syntax-ns#" xmlns:sodipodi="http://sodipodi.sourceforge.net/DTD/sodipodi-0.dtd" xmlns:svg="http://www.w3.org/2000/svg" xmlns:xlink="http://www.w3.org/1999/xlink"><path d="M143.034,459.857H43.428c-8.284,0-15,6.716-15,15v190.577c0,8.284,6.716,15,15,15h99.606  c8.284,0,15-6.716,15-15V474.857C158.034,466.573,151.318,459.857,143.034,459.857z M128.034,650.436H58.428V489.857h69.606V650.436  z" fill="#08213D"/><path d="M347.547,346.498H247.94c-8.285,0-15,6.716-15,15v303.938c0,8.284,6.715,15,15,15h99.606  c8.284,0,15-6.716,15-15V361.498C362.547,353.214,355.831,346.498,347.547,346.498z M332.547,650.436H262.94V376.498h69.606  L332.547,650.436L332.547,650.436z" fill="#08213D"/><path d="M552.06,233.018h-99.605c-8.284,0-15,6.716-15,15v417.417c0,8.284,6.716,15,15,15h99.605  c8.284,0,15-6.716,15-15V248.018C567.06,239.733,560.344,233.018,552.06,233.018z M537.06,650.436h-69.605V263.018h69.605V650.436z" fill="#08213D"/><path d="M756.572,119.564h-99.607c-8.284,0-15,6.716-15,15v530.871c0,8.284,6.716,15,15,15h99.607  c8.284,0,15-6.716,15-15V134.564C771.572,126.28,764.856,119.564,756.572,119.564z M741.572,650.436h-69.607V149.564h69.607V650.436  z" fill="#08213D"/></svg>