<?xml version="1.0" ?><!DOCTYPE svg  PUBLIC '-//W3C//DTD SVG 1.1//EN'  'http://www.w3.org/Graphics/SVG/1.1/DTD/svg11.dtd'><svg enable-background="new 0 0 800 800" height="800px" id="GUIDE" version="1.1" viewBox="0 0 800 800" width="800px" xml:space="preserve" xmlns="http://www.w3.org/2000/svg" xmlns:cc="http://creativecommons.org/ns#" xmlns:dc="http://purl.org/dc/elements/1.1/" xmlns:inkscape="http://www.inkscape.org/namespaces/inkscape" xmlns:rdf="http://www.w3.org/1999/02/22-rdf-syntax-ns#" xmlns:sodipodi="http://sodipodi.sourceforge.net/DTD/sodipodi-0.dtd" xmlns:svg="http://www.w3.org/2000/svg" xmlns:xlink="http://www.w3.org/1999/xlink"><path d="M732.385,194.607H67.613c-21.607,0-39.187,17.579-39.187,39.188v332.412  c0,21.607,17.579,39.186,39.187,39.186h664.771c21.608,0,39.188-17.578,39.188-39.186V233.795  C771.573,212.187,753.993,194.607,732.385,194.607z M741.573,566.207c0,5.064-4.122,9.186-9.188,9.186H67.613  c-5.065,0-9.187-4.121-9.187-9.186V233.795c0-5.066,4.121-9.188,9.187-9.188h664.771c5.066,0,9.188,4.121,9.188,9.188  L741.573,566.207L741.573,566.207z" fill="#08213D"/><path d="M154.187,243.063H91.884c-8.284,0-15,6.716-15,15v62.303c0,8.284,6.716,15,15,15h62.303  c8.283,0,15-6.716,15-15v-62.303C169.187,249.778,162.47,243.063,154.187,243.063z M139.187,305.365h-32.303v-32.303h32.303V305.365  z" fill="#08213D"/><path d="M264.972,243.063H202.67c-8.284,0-15,6.716-15,15v62.303c0,8.284,6.716,15,15,15h62.302  c8.285,0,15-6.716,15-15v-62.303C279.972,249.778,273.257,243.063,264.972,243.063z M249.972,305.365H217.67v-32.303h32.302V305.365  z" fill="#08213D"/><path d="M375.759,243.063h-62.303c-8.285,0-15,6.716-15,15v62.303c0,8.284,6.715,15,15,15h62.303  c8.283,0,15-6.716,15-15v-62.303C390.759,249.778,384.042,243.063,375.759,243.063z M360.759,305.365h-32.303v-32.303h32.303  V305.365z" fill="#08213D"/><path d="M486.544,243.063h-62.302c-8.284,0-15,6.716-15,15v62.303c0,8.284,6.716,15,15,15h62.302  c8.284,0,15-6.716,15-15v-62.303C501.544,249.778,494.828,243.063,486.544,243.063z M471.544,305.365h-32.302v-32.303h32.302  V305.365z" fill="#08213D"/><path d="M597.33,243.063h-62.303c-8.284,0-15,6.716-15,15v62.303c0,8.284,6.716,15,15,15h62.303  c8.284,0,15-6.716,15-15v-62.303C612.33,249.778,605.614,243.063,597.33,243.063z M582.33,305.365h-32.303v-32.303h32.303V305.365z" fill="#08213D"/><path d="M375.759,353.849h-62.303c-8.285,0-15,6.717-15,15v62.303c0,8.284,6.715,15,15,15h62.303  c8.283,0,15-6.716,15-15v-62.303C390.759,360.564,384.042,353.849,375.759,353.849z M360.759,416.15h-32.303v-32.303h32.303V416.15z  " fill="#08213D"/><path d="M486.544,353.849h-62.302c-8.284,0-15,6.717-15,15v62.303c0,8.284,6.716,15,15,15h62.302  c8.284,0,15-6.716,15-15v-62.303C501.544,360.564,494.828,353.849,486.544,353.849z M471.544,416.15h-32.302v-32.303h32.302V416.15z  " fill="#08213D"/><path d="M264.972,353.849H91.884c-8.284,0-15,6.717-15,15v62.303c0,8.284,6.716,15,15,15h173.088  c8.285,0,15-6.716,15-15v-62.303C279.972,360.564,273.257,353.849,264.972,353.849z M249.972,416.15H106.884v-32.303h143.088V416.15  z" fill="#08213D"/><path d="M708.116,243.063h-62.303c-8.284,0-15,6.716-15,15v95.786h-95.786c-8.284,0-15,6.717-15,15v62.303  c0,8.284,6.716,15,15,15h173.089c8.284,0,15-6.716,15-15V258.063C723.116,249.778,716.4,243.063,708.116,243.063z M693.116,416.15  H550.027v-32.303h95.786c8.283,0,15-6.716,15-15v-95.786h32.303V416.15L693.116,416.15z" fill="#08213D"/><path d="M597.33,464.635H202.67c-8.284,0-15,6.715-15,15v62.303c0,8.283,6.716,15,15,15h394.66  c8.284,0,15-6.717,15-15v-62.303C612.33,471.35,605.614,464.635,597.33,464.635z M582.33,526.938H217.67v-32.303h364.66V526.938z" fill="#08213D"/><path d="M154.187,464.635H91.884c-8.284,0-15,6.715-15,15v62.303c0,8.283,6.716,15,15,15h62.303  c8.283,0,15-6.717,15-15v-62.303C169.187,471.35,162.47,464.635,154.187,464.635z M139.187,526.938h-32.303v-32.303h32.303V526.938z  " fill="#08213D"/><path d="M708.116,464.635h-62.303c-8.284,0-15,6.715-15,15v62.303c0,8.283,6.716,15,15,15h62.303  c8.284,0,15-6.717,15-15v-62.303C723.116,471.35,716.4,464.635,708.116,464.635z M693.116,526.938h-32.303v-32.303h32.303V526.938z" fill="#08213D"/></svg>