<?xml version="1.0" ?><!DOCTYPE svg  PUBLIC '-//W3C//DTD SVG 1.1//EN'  'http://www.w3.org/Graphics/SVG/1.1/DTD/svg11.dtd'><svg enable-background="new 0 0 91 91" height="91px" id="Layer_1" version="1.1" viewBox="0 0 91 91" width="91px" xml:space="preserve" xmlns="http://www.w3.org/2000/svg" xmlns:xlink="http://www.w3.org/1999/xlink"><g><path d="M75.296,29.516C69.521,18.87,58.224,11.799,45.694,11.799c-2.342,0-4.701,0.248-7.012,0.737   c-8.801,1.866-16.348,7.047-21.252,14.589c-3.131,4.815-4.938,10.227-5.354,15.799C3.549,47.098-0.204,51.061,0.634,55.032   c0.926,4.353,7.259,6.082,15.381,6.38c5.767,10.67,17.076,17.761,29.624,17.761c2.342,0,4.7-0.249,7.011-0.737   c8.801-1.867,16.35-7.049,21.254-14.592c3.141-4.828,4.948-10.255,5.359-15.842c7.289-3.565,12.355-7.714,11.437-12.064   C89.856,31.958,84.806,29.854,75.296,29.516z M21.644,29.864c4.172-6.417,10.594-10.825,18.08-12.412   c1.969-0.417,3.979-0.628,5.971-0.628c13.435,0,25.213,9.555,28.006,22.72c0.373,1.755,0.572,3.519,0.617,5.276   c-6.229,2.745-15.133,5.738-27.041,8.263c-11.892,2.52-21.236,3.396-28.042,3.417c-0.679-1.619-1.224-3.312-1.597-5.074   C16.049,43.938,17.472,36.281,21.644,29.864z M5.55,53.993c-0.039-0.421,1.052-2.435,6.582-5.451   c0.123,1.31,0.313,2.619,0.59,3.925c0.277,1.313,0.637,2.59,1.062,3.838C8.591,55.886,5.845,54.868,5.55,53.993z M69.69,61.104   c-4.173,6.418-10.596,10.827-18.082,12.415c-1.969,0.416-3.977,0.628-5.97,0.628c-9.712,0-18.535-5.007-23.745-12.744   c9.125-0.317,19.289-1.894,26.425-3.405c7.153-1.517,17.114-4.208,25.595-7.632C73.261,54.146,71.845,57.791,69.69,61.104z    M79.206,42.435c-0.123-1.313-0.313-2.625-0.59-3.934c-0.277-1.306-0.636-2.58-1.059-3.821c6.234,0.507,8.086,1.89,8.225,2.297   C85.87,37.899,83.778,39.945,79.206,42.435z"/></g></svg>